<?xml version="1.0" encoding="UTF-8" standalone="no"?>
<!-- Created with Inkscape (http://www.inkscape.org/) -->

<svg
   width="1100"
   height="600.00006"
   version="1.1"
   viewBox="0 0 291.04165 158.75002"
   id="svg447"
   sodipodi:docname="Rextro_ColoredV1.svg"
   inkscape:version="1.4.2 (f4327f4, 2025-05-13)"
   xml:space="preserve"
   inkscape:export-batch-path="C:\Users\Shukri\Downloads\book"
   inkscape:export-batch-name="Rextro_ColoredV1"
   xmlns:inkscape="http://www.inkscape.org/namespaces/inkscape"
   xmlns:sodipodi="http://sodipodi.sourceforge.net/DTD/sodipodi-0.dtd"
   xmlns:xlink="http://www.w3.org/1999/xlink"
   xmlns="http://www.w3.org/2000/svg"
   xmlns:svg="http://www.w3.org/2000/svg"><sodipodi:namedview
     id="namedview449"
     pagecolor="#ffffff"
     bordercolor="#666666"
     borderopacity="1.0"
     inkscape:pageshadow="2"
     inkscape:pageopacity="0.0"
     inkscape:pagecheckerboard="0"
     inkscape:document-units="mm"
     showgrid="false"
     units="px"
     inkscape:zoom="0.18125"
     inkscape:cx="5131.0345"
     inkscape:cy="504.82759"
     inkscape:window-width="1920"
     inkscape:window-height="1001"
     inkscape:window-x="-9"
     inkscape:window-y="-9"
     inkscape:window-maximized="1"
     inkscape:current-layer="g1"
     inkscape:showpageshadow="0"
     inkscape:deskcolor="#505050"><inkscape:page
       x="0"
       y="0"
       width="291.04166"
       height="158.75002"
       id="page3"
       margin="0"
       bleed="0" /></sodipodi:namedview><defs
     id="defs19"><linearGradient
       id="linearGradient938"><stop
         style="stop-color:#d40000"
         offset="0"
         id="stop3" /><stop
         style="stop-color:#000080"
         offset="1"
         id="stop5" /></linearGradient><linearGradient
       inkscape:collect="always"
       id="linearGradient6993-1"><stop
         style="stop-color:#002255;stop-opacity:1;"
         offset="0"
         id="stop6989" /><stop
         style="stop-color:#0044aa;stop-opacity:1"
         offset="0.45133561"
         id="stop8765" /><stop
         style="stop-color:#213f6b;stop-opacity:1"
         offset="1"
         id="stop6991" /></linearGradient><linearGradient
       inkscape:collect="always"
       xlink:href="#linearGradient938"
       id="linearGradient16"
       gradientUnits="userSpaceOnUse"
       x1="249.07645"
       y1="86.413628"
       x2="365.13474"
       y2="86.408936" /><linearGradient
       inkscape:collect="always"
       xlink:href="#linearGradient6993-1"
       id="linearGradient17"
       gradientUnits="userSpaceOnUse"
       x1="222.93944"
       y1="85.25618"
       x2="353.50394"
       y2="85.25618" /></defs><rect
     style="font-size:40px;letter-spacing:13.1752px;white-space:pre;fill:#ffffff;fill-opacity:1;stroke:#000000;stroke-width:0.0880017;stroke-opacity:1"
     id="rect13"
     width="290.95367"
     height="158.662"
     x="0.044043504"
     y="0.043985061"
     inkscape:export-filename="D:\Campus\REXTRO\prots\logo_v1.png"
     inkscape:export-xdpi="600"
     inkscape:export-ydpi="600" /><g
     id="g16"
     inkscape:export-filename="D:\Campus\REXTRO\logo_assets\Rextro_colored_V1.png"
     inkscape:export-xdpi="900"
     inkscape:export-ydpi="900"
     transform="matrix(1.4056,0,0,1.4056,-259.6036,-42.986385)"><path
       id="path15"
       style="font-size:40px;-inkscape-font-specification:'Poppins Semi-Bold';letter-spacing:-4.15px;white-space:pre;fill:url(#linearGradient16);fill-opacity:1;stroke-width:1.08415"
       d="m 274.62014,69.680964 -13.8414,1.47e-4 9.81458,15.350572 -10.62924,15.001657 h 11.27568 l 7.08769,-10.02707 v 10.02707 h 13.96074 l -9.98836,-15.646865 v -9.18e-4 l 10.41742,-14.704631 h -11.27477 l -6.82234,9.654203 z" /><path
       id="path16"
       style="font-size:40px;line-height:1.25;font-family:Hanson;-inkscape-font-specification:Hanson;white-space:pre;fill:url(#linearGradient17);fill-opacity:1;stroke-width:0.63909"
       d="m 291.76468,76.162907 -2.99257,4.223514 h 7.12462 v 13.898893 h 4.22352 V 80.386421 h 6.60889 v -4.223514 z m 50.78037,0.124542 c -2.02769,0.0063 -4.06617,0.09379 -6.11331,0.243911 -2.58302,0.189413 -4.4256,1.937433 -4.67725,4.318601 -0.18375,2.988579 -0.2835,5.964316 0,8.733316 0.25165,2.381165 2.09423,4.12919 4.67725,4.318598 2.04714,0.150122 4.08562,0.237646 6.11331,0.243914 2.02769,0.0063 4.04458,-0.0687 6.04768,-0.243914 2.57967,-0.225624 4.3873,-1.941148 4.67726,-4.318598 0.29236,-2.989517 0.33094,-5.955107 0,-8.733316 -0.28993,-2.377454 -2.09759,-4.092975 -4.67726,-4.318601 -2.0031,-0.175204 -4.01999,-0.250185 -6.04768,-0.243911 z m -105.5615,0.203604 c -0.31964,-0.0019 -0.59616,0.0041 -0.81132,0.0041 H 222.93944 V 94.34936 h 4.24108 l 0.0103,-4.847767 v -8.891958 h 0.23257 v 5.29e-4 h 9.36739 c 0.0148,0 0.0277,0.0013 0.0424,0.0016 h 0.11525 c 0.16725,0 0.3302,0.01678 0.48781,0.04857 0.005,0.0011 0.0101,0.0021 0.0151,0.0031 0.50731,0.08912 0.86539,0.288208 1.11672,0.565341 0.50036,0.445534 0.81651,1.093245 0.81651,1.81901 0,0.94315 -0.53131,1.755979 -1.31154,2.161109 -0.0429,0.0232 -0.0883,0.04376 -0.13386,0.06408 -0.0185,0.0082 -0.0366,0.01709 -0.0553,0.02479 -0.0233,0.0096 -0.0479,0.01754 -0.0718,0.02635 -0.26852,0.101404 -0.55861,0.159681 -0.86349,0.159681 h -6.79908 c -0.028,0 -1.1313,-0.0032 -1.15911,-0.0041 h -0.29816 l 2.56728,4.021976 h 4.87928 l 2.73008,4.821928 5.44875,0.02585 -3.73877,-5.652884 c 1.74725,-0.941009 3.06165,-2.39803 3.02926,-6.253882 -0.0467,-5.540957 -4.38687,-5.938713 -6.6244,-5.951575 z m 86.02678,0 c -0.31967,-0.0019 -0.59613,0.0041 -0.81132,0.0041 H 308.96622 V 94.34936 h 4.24109 l 0.0103,-4.847767 v -8.891958 h 0.23254 v 5.29e-4 h 9.36739 c 0.0148,0 0.0277,0.0013 0.0424,0.0016 h 0.11525 c 0.16727,0 0.33022,0.01678 0.48781,0.04857 0.005,0.0011 0.01,0.0021 0.0151,0.0031 0.50729,0.08912 0.86537,0.288208 1.11673,0.565341 0.50035,0.445532 0.81648,1.093245 0.81648,1.81901 0,0.94315 -0.53131,1.755976 -1.31154,2.161109 -0.0429,0.0232 -0.0883,0.04376 -0.13386,0.06408 -0.0185,0.0082 -0.0366,0.01707 -0.0553,0.02479 -0.0233,0.0096 -0.0479,0.01754 -0.0718,0.02635 -0.26858,0.101407 -0.55864,0.159681 -0.86352,0.159681 h -6.79908 c -0.0281,0 -1.1313,-0.0032 -1.15909,-0.0041 h -0.29818 l 2.56728,4.021976 h 4.87928 l 2.73008,4.821928 5.44875,0.02585 -3.73877,-5.652884 c 1.74728,-0.941009 3.06165,-2.39803 3.02926,-6.253882 -0.0467,-5.540957 -4.38689,-5.938713 -6.6244,-5.951575 z m -77.29916,0.06666 v 4.223515 13.568164 h 4.22352 9.58339 l 2.99257,-4.223515 H 249.93469 V 80.78123 h 12.14602 v -4.223515 h -12.14602 z m 96.93206,3.385839 c 1.24916,0.01241 2.45454,0.07995 3.64578,0.165883 1.46272,0.105516 2.44816,1.103333 2.64842,2.445329 0.21855,1.804525 0.22363,3.787852 0,5.323705 -0.20026,1.341993 -1.1857,2.339814 -2.64842,2.44533 -2.38247,0.17186 -4.82211,0.271176 -7.55354,0 -1.45881,-0.144831 -2.38826,-1.112131 -2.64842,-2.44533 -0.20376,-1.801717 -0.30938,-3.68655 0,-5.323705 0.26016,-1.333201 1.18961,-2.300499 2.64842,-2.445329 1.3657,-0.135589 2.65861,-0.178295 3.90776,-0.165883 z m -90.54898,3.782716 v 3.24063 h 8.17623 v -3.24063 z" /></g></svg>
